<svg width="246" height="246" viewBox="0 0 246 246" fill="none" xmlns="http://www.w3.org/2000/svg">
<circle cx="123" cy="123" r="123" fill="#EE7100" fill-opacity="0.2"/>
<path d="M170.218 140.05C164.396 144.775 157.985 148.691 151.034 151.45L163.673 173.341L176.212 178.696C178.492 179.67 181.067 178.182 181.364 175.721L182.996 162.183L170.218 140.05V140.05ZM180.093 118.072C181.223 116.289 180.532 113.891 178.687 112.868L172.163 109.249C170.424 108.285 168.302 108.91 167.222 110.579C157.667 125.344 141.221 134.374 123.499 134.374C117.937 134.374 112.522 133.386 107.367 131.694L123.023 104.575C123.185 104.58 123.334 104.624 123.497 104.624C123.66 104.624 123.811 104.58 123.971 104.575L135.845 125.145C143.104 123.062 149.688 119.16 155.045 113.775L143.008 92.9244C144.74 89.7565 145.811 86.1773 145.811 82.3122C145.811 69.9893 135.822 60 123.499 60C111.176 60 101.187 69.9893 101.187 82.3122C101.187 86.1773 102.258 89.7565 103.988 92.9244L88.1135 120.422C85.1967 117.723 82.5448 114.707 80.2857 111.357C79.1724 109.707 77.0388 109.122 75.3166 110.119L68.867 113.854C67.0425 114.909 66.3964 117.317 67.5561 119.076C71.1749 124.57 75.6187 129.351 80.5669 133.491L64.0001 162.185L65.6317 175.723C65.9292 178.185 68.5044 179.672 70.7844 178.698L83.3234 173.343L99.7786 144.842C107.26 147.687 115.276 149.249 123.499 149.249C146.52 149.249 167.863 137.393 180.093 118.072ZM123.499 74.8748C127.606 74.8748 130.937 78.2053 130.937 82.3122C130.937 86.419 127.606 89.7495 123.499 89.7495C119.392 89.7495 116.062 86.419 116.062 82.3122C116.062 78.2053 119.392 74.8748 123.499 74.8748Z" fill="#EE7100"/>
</svg>
