<svg width="246" height="246" viewBox="0 0 246 246" fill="none" xmlns="http://www.w3.org/2000/svg">
<g clip-path="url(#clip0)">
<path d="M82.281 201.13C82.281 202.122 81.1403 202.915 79.702 202.915C78.0653 203.064 76.9246 202.271 76.9246 201.13C76.9246 200.138 78.0653 199.344 79.5036 199.344C80.9915 199.196 82.281 199.989 82.281 201.13ZM66.8565 198.898C66.5093 199.89 67.5012 201.031 68.9891 201.328C70.2786 201.824 71.7665 201.328 72.0641 200.336C72.3617 199.344 71.4194 198.204 69.9315 197.757C68.6419 197.41 67.2036 197.906 66.8565 198.898ZM88.7782 198.055C87.3399 198.402 86.348 199.344 86.4968 200.485C86.6456 201.477 87.9351 202.122 89.423 201.775C90.8613 201.427 91.8532 200.485 91.7044 199.493C91.5556 198.551 90.2165 197.906 88.7782 198.055ZM121.413 8C52.6222 8 0 60.2254 0 129.016C0 184.019 34.6186 231.086 84.0665 247.652C90.4149 248.792 92.6468 244.874 92.6468 241.65C92.6468 238.575 92.498 221.613 92.498 211.198C92.498 211.198 57.7802 218.637 50.4895 196.418C50.4895 196.418 44.8355 181.985 36.7016 178.266C36.7016 178.266 25.344 170.479 37.4952 170.628C37.4952 170.628 49.8448 171.62 56.6395 183.424C67.5012 202.568 85.7032 197.063 92.7956 193.79C93.9363 185.854 97.1601 180.349 100.731 177.075C73.0065 174 45.0339 169.983 45.0339 122.271C45.0339 108.632 48.8032 101.788 56.7387 93.0585C55.4492 89.8347 51.2335 76.5427 58.0282 59.3823C68.394 56.1585 92.25 72.7734 92.25 72.7734C102.169 69.996 112.833 68.5577 123.397 68.5577C133.961 68.5577 144.624 69.996 154.544 72.7734C154.544 72.7734 178.4 56.1089 188.765 59.3823C195.56 76.5923 191.344 89.8347 190.055 93.0585C197.99 101.837 202.851 108.681 202.851 122.271C202.851 170.132 173.638 173.951 145.914 177.075C150.477 180.994 154.345 188.433 154.345 200.088C154.345 216.802 154.196 237.484 154.196 241.551C154.196 244.775 156.478 248.693 162.777 247.552C212.373 231.086 246 184.019 246 129.016C246 60.2254 190.204 8 121.413 8ZM48.2081 179.059C47.5633 179.555 47.7121 180.696 48.5552 181.638C49.3488 182.432 50.4895 182.779 51.1343 182.134C51.779 181.638 51.6302 180.498 50.7871 179.555C49.9935 178.762 48.8528 178.415 48.2081 179.059ZM42.8516 175.042C42.5044 175.687 43.0004 176.48 43.9923 176.976C44.7859 177.472 45.7778 177.323 46.125 176.629C46.4722 175.984 45.9762 175.191 44.9843 174.695C43.9923 174.397 43.1988 174.546 42.8516 175.042ZM58.921 192.698C58.1274 193.343 58.425 194.831 59.5657 195.773C60.7065 196.914 62.1448 197.063 62.7895 196.269C63.4343 195.625 63.1367 194.137 62.1448 193.194C61.0536 192.054 59.5657 191.905 58.921 192.698ZM53.2669 185.408C52.4734 185.904 52.4734 187.193 53.2669 188.334C54.0605 189.475 55.3996 189.971 56.0444 189.475C56.8379 188.83 56.8379 187.54 56.0444 186.4C55.35 185.259 54.0605 184.763 53.2669 185.408Z" fill="#333333"/>
</g>
<defs>
<clipPath id="clip0">
<rect width="246" height="246" fill="white"/>
</clipPath>
</defs>
</svg>
