<svg width="246" height="246" viewBox="0 0 246 246" fill="none" xmlns="http://www.w3.org/2000/svg">
<circle cx="123" cy="123" r="123" fill="#EE7100" fill-opacity="0.2"/>
<path d="M162.156 121.5H107.422V98.7457C107.422 90.0058 114.418 82.7447 123.158 82.6564C131.986 82.5682 139.203 89.741 139.203 98.547V102.078C139.203 105.014 141.565 107.375 144.5 107.375H151.562C154.498 107.375 156.859 105.014 156.859 102.078V98.547C156.859 80.008 141.741 64.934 123.202 65.0002C104.663 65.0664 89.7656 80.3391 89.7656 98.8781V121.5H84.4687C78.6201 121.5 73.875 126.245 73.875 132.094V167.406C73.875 173.255 78.6201 178 84.4687 178H162.156C168.005 178 172.75 173.255 172.75 167.406V132.094C172.75 126.245 168.005 121.5 162.156 121.5Z" fill="#EE7100"/>
</svg>
