<svg width="246" height="246" viewBox="0 0 246 246" fill="none" xmlns="http://www.w3.org/2000/svg">
<circle cx="123" cy="123" r="123" fill="#EE7100" fill-opacity="0.2"/>
<g clip-path="url(#clip0)">
<path d="M123.124 185C132.092 185 139.367 177.726 139.367 168.75H106.882C106.882 177.726 114.156 185 123.124 185ZM177.813 146.988C172.908 141.717 163.729 133.787 163.729 107.812C163.729 88.084 149.896 72.291 131.244 68.4164V63.125C131.244 58.6385 127.608 55 123.124 55C118.64 55 115.005 58.6385 115.005 63.125V68.4164C96.3526 72.291 82.5198 88.084 82.5198 107.812C82.5198 133.787 73.341 141.717 68.4356 146.988C66.9121 148.625 66.2367 150.583 66.2494 152.5C66.2774 156.664 69.5451 160.625 74.3998 160.625H171.849C176.704 160.625 179.974 156.664 179.999 152.5C180.012 150.583 179.337 148.623 177.813 146.988V146.988Z" fill="#EE7100"/>
</g>
<defs>
<clipPath id="clip0">
<rect width="113.75" height="130" fill="white" transform="translate(66.25 55)"/>
</clipPath>
</defs>
</svg>
