<svg width="246" height="246" viewBox="0 0 246 246" fill="none" xmlns="http://www.w3.org/2000/svg">
<circle cx="123" cy="123" r="123" fill="#EE7100" fill-opacity="0.2"/>
<g clip-path="url(#clip0)">
<path d="M191.249 99.7094L128.052 80.293C124.608 79.2349 120.892 79.2349 117.451 80.293L54.2511 99.7094C48.9178 101.347 48.9178 108.4 54.2511 110.038L65.2689 113.423C62.8514 116.412 61.3652 120.057 61.2179 124.049C59.0361 125.3 57.5 127.556 57.5 130.25C57.5 132.692 58.7869 134.747 60.6402 136.061L54.856 162.089C54.3531 164.352 56.0749 166.5 58.3927 166.5H71.1051C73.4251 166.5 75.147 164.352 74.644 162.089L68.8599 136.061C70.7132 134.747 72 132.692 72 130.25C72 127.629 70.5342 125.436 68.4521 124.162C68.6242 120.759 70.3642 117.751 73.1396 115.843L117.448 129.457C119.501 130.087 123.439 130.873 128.049 129.457L191.249 110.041C196.584 108.4 196.584 101.35 191.249 99.7094V99.7094ZM130.179 136.388C123.715 138.372 118.207 137.276 115.319 136.388L82.4627 126.294L79.25 152C79.25 160.009 98.7253 166.5 122.75 166.5C146.775 166.5 166.25 160.009 166.25 152L163.037 126.292L130.179 136.388V136.388Z" fill="#EE7100"/>
</g>
<defs>
<clipPath id="clip0">
<rect width="145" height="116" fill="white" transform="translate(50.25 65)"/>
</clipPath>
</defs>
</svg>
